<mxfile host="65bd71144e">
    <diagram id="WbjxUu1evFDNCKrGVBx4" name="Page-1">
        <mxGraphModel dx="1759" dy="655" grid="1" gridSize="10" guides="1" tooltips="1" connect="1" arrows="1" fold="1" page="1" pageScale="1" pageWidth="850" pageHeight="1100" math="0" shadow="0">
            <root>
                <mxCell id="0"/>
                <mxCell id="1" parent="0"/>
                <mxCell id="YvaXyPzC3fc4QxB65vGy-7" style="edgeStyle=orthogonalEdgeStyle;rounded=0;orthogonalLoop=1;jettySize=auto;html=1;entryX=0.5;entryY=1;entryDx=0;entryDy=0;" parent="1" source="YvaXyPzC3fc4QxB65vGy-1" target="YvaXyPzC3fc4QxB65vGy-3" edge="1">
                    <mxGeometry relative="1" as="geometry"/>
                </mxCell>
                <mxCell id="YvaXyPzC3fc4QxB65vGy-23" value="Relies" style="edgeLabel;html=1;align=center;verticalAlign=middle;resizable=0;points=[];" parent="YvaXyPzC3fc4QxB65vGy-7" vertex="1" connectable="0">
                    <mxGeometry x="-0.02" y="-1" relative="1" as="geometry">
                        <mxPoint as="offset"/>
                    </mxGeometry>
                </mxCell>
                <mxCell id="YvaXyPzC3fc4QxB65vGy-1" value="LoginView" style="rounded=0;whiteSpace=wrap;html=1;" parent="1" vertex="1">
                    <mxGeometry x="-57" y="950" width="120" height="60" as="geometry"/>
                </mxCell>
                <mxCell id="YvaXyPzC3fc4QxB65vGy-3" value="Log" style="rounded=1;whiteSpace=wrap;html=1;dashed=1;" parent="1" vertex="1">
                    <mxGeometry x="-57" y="840" width="120" height="60" as="geometry"/>
                </mxCell>
                <mxCell id="YvaXyPzC3fc4QxB65vGy-16" style="edgeStyle=orthogonalEdgeStyle;rounded=0;orthogonalLoop=1;jettySize=auto;html=1;entryX=0.308;entryY=1.022;entryDx=0;entryDy=0;entryPerimeter=0;" parent="1" source="YvaXyPzC3fc4QxB65vGy-4" target="YvaXyPzC3fc4QxB65vGy-14" edge="1">
                    <mxGeometry relative="1" as="geometry"/>
                </mxCell>
                <mxCell id="YvaXyPzC3fc4QxB65vGy-30" value="Relies" style="edgeLabel;html=1;align=center;verticalAlign=middle;resizable=0;points=[];" parent="YvaXyPzC3fc4QxB65vGy-16" vertex="1" connectable="0">
                    <mxGeometry x="-0.0886" y="3" relative="1" as="geometry">
                        <mxPoint as="offset"/>
                    </mxGeometry>
                </mxCell>
                <mxCell id="6" style="edgeStyle=orthogonalEdgeStyle;rounded=0;orthogonalLoop=1;jettySize=auto;html=1;exitX=1;exitY=0.5;exitDx=0;exitDy=0;entryX=1;entryY=0.25;entryDx=0;entryDy=0;" parent="1" source="YvaXyPzC3fc4QxB65vGy-4" target="YvaXyPzC3fc4QxB65vGy-3" edge="1">
                    <mxGeometry relative="1" as="geometry"/>
                </mxCell>
                <mxCell id="7" value="Implements" style="edgeLabel;html=1;align=center;verticalAlign=middle;resizable=0;points=[];" parent="6" vertex="1" connectable="0">
                    <mxGeometry x="0.4327" y="2" relative="1" as="geometry">
                        <mxPoint as="offset"/>
                    </mxGeometry>
                </mxCell>
                <mxCell id="YvaXyPzC3fc4QxB65vGy-4" value="ScreenLog" style="rounded=0;whiteSpace=wrap;html=1;" parent="1" vertex="1">
                    <mxGeometry x="-57" y="590" width="120" height="60" as="geometry"/>
                </mxCell>
                <mxCell id="YvaXyPzC3fc4QxB65vGy-17" style="edgeStyle=orthogonalEdgeStyle;rounded=0;orthogonalLoop=1;jettySize=auto;html=1;entryX=0.75;entryY=1;entryDx=0;entryDy=0;" parent="1" source="YvaXyPzC3fc4QxB65vGy-5" target="YvaXyPzC3fc4QxB65vGy-14" edge="1">
                    <mxGeometry relative="1" as="geometry"/>
                </mxCell>
                <mxCell id="YvaXyPzC3fc4QxB65vGy-32" value="Relies" style="edgeLabel;html=1;align=center;verticalAlign=middle;resizable=0;points=[];" parent="YvaXyPzC3fc4QxB65vGy-17" vertex="1" connectable="0">
                    <mxGeometry x="-0.4395" y="-2" relative="1" as="geometry">
                        <mxPoint as="offset"/>
                    </mxGeometry>
                </mxCell>
                <mxCell id="4" style="edgeStyle=orthogonalEdgeStyle;rounded=0;orthogonalLoop=1;jettySize=auto;html=1;exitX=1;exitY=0.5;exitDx=0;exitDy=0;entryX=1;entryY=0.5;entryDx=0;entryDy=0;" parent="1" source="YvaXyPzC3fc4QxB65vGy-5" target="YvaXyPzC3fc4QxB65vGy-3" edge="1">
                    <mxGeometry relative="1" as="geometry"/>
                </mxCell>
                <mxCell id="5" value="Implements" style="edgeLabel;html=1;align=center;verticalAlign=middle;resizable=0;points=[];" parent="4" vertex="1" connectable="0">
                    <mxGeometry x="0.6435" relative="1" as="geometry">
                        <mxPoint as="offset"/>
                    </mxGeometry>
                </mxCell>
                <mxCell id="YvaXyPzC3fc4QxB65vGy-5" value="ActionLog" style="rounded=0;whiteSpace=wrap;html=1;" parent="1" vertex="1">
                    <mxGeometry x="113" y="590" width="120" height="60" as="geometry"/>
                </mxCell>
                <mxCell id="YvaXyPzC3fc4QxB65vGy-15" style="edgeStyle=orthogonalEdgeStyle;rounded=0;orthogonalLoop=1;jettySize=auto;html=1;entryX=0.5;entryY=1;entryDx=0;entryDy=0;" parent="1" source="YvaXyPzC3fc4QxB65vGy-6" target="YvaXyPzC3fc4QxB65vGy-13" edge="1">
                    <mxGeometry relative="1" as="geometry"/>
                </mxCell>
                <mxCell id="YvaXyPzC3fc4QxB65vGy-29" value="Relies" style="edgeLabel;html=1;align=center;verticalAlign=middle;resizable=0;points=[];" parent="YvaXyPzC3fc4QxB65vGy-15" vertex="1" connectable="0">
                    <mxGeometry x="0.0158" y="1" relative="1" as="geometry">
                        <mxPoint as="offset"/>
                    </mxGeometry>
                </mxCell>
                <mxCell id="2" style="edgeStyle=orthogonalEdgeStyle;rounded=0;orthogonalLoop=1;jettySize=auto;html=1;exitX=0.25;exitY=1;exitDx=0;exitDy=0;entryX=0;entryY=0.5;entryDx=0;entryDy=0;" parent="1" source="YvaXyPzC3fc4QxB65vGy-6" target="YvaXyPzC3fc4QxB65vGy-3" edge="1">
                    <mxGeometry relative="1" as="geometry"/>
                </mxCell>
                <mxCell id="3" value="Implements" style="edgeLabel;html=1;align=center;verticalAlign=middle;resizable=0;points=[];" parent="2" vertex="1" connectable="0">
                    <mxGeometry x="0.36" y="2" relative="1" as="geometry">
                        <mxPoint x="37" y="2" as="offset"/>
                    </mxGeometry>
                </mxCell>
                <mxCell id="YvaXyPzC3fc4QxB65vGy-6" value="ErrorLog" style="rounded=0;whiteSpace=wrap;html=1;" parent="1" vertex="1">
                    <mxGeometry x="-242" y="590" width="120" height="60" as="geometry"/>
                </mxCell>
                <mxCell id="YvaXyPzC3fc4QxB65vGy-9" style="edgeStyle=orthogonalEdgeStyle;rounded=0;orthogonalLoop=1;jettySize=auto;html=1;entryX=0.5;entryY=0;entryDx=0;entryDy=0;" parent="1" source="YvaXyPzC3fc4QxB65vGy-8" target="YvaXyPzC3fc4QxB65vGy-3" edge="1">
                    <mxGeometry relative="1" as="geometry"/>
                </mxCell>
                <mxCell id="YvaXyPzC3fc4QxB65vGy-10" style="edgeStyle=orthogonalEdgeStyle;rounded=0;orthogonalLoop=1;jettySize=auto;html=1;entryX=0.5;entryY=1;entryDx=0;entryDy=0;" parent="1" source="YvaXyPzC3fc4QxB65vGy-8" target="YvaXyPzC3fc4QxB65vGy-6" edge="1">
                    <mxGeometry relative="1" as="geometry"/>
                </mxCell>
                <mxCell id="YvaXyPzC3fc4QxB65vGy-28" value="Relies" style="edgeLabel;html=1;align=center;verticalAlign=middle;resizable=0;points=[];" parent="YvaXyPzC3fc4QxB65vGy-10" vertex="1" connectable="0">
                    <mxGeometry x="-0.3073" y="-1" relative="1" as="geometry">
                        <mxPoint as="offset"/>
                    </mxGeometry>
                </mxCell>
                <mxCell id="YvaXyPzC3fc4QxB65vGy-11" style="edgeStyle=orthogonalEdgeStyle;rounded=0;orthogonalLoop=1;jettySize=auto;html=1;entryX=0.5;entryY=1;entryDx=0;entryDy=0;" parent="1" source="YvaXyPzC3fc4QxB65vGy-8" target="YvaXyPzC3fc4QxB65vGy-4" edge="1">
                    <mxGeometry relative="1" as="geometry"/>
                </mxCell>
                <mxCell id="YvaXyPzC3fc4QxB65vGy-27" value="Relies" style="edgeLabel;html=1;align=center;verticalAlign=middle;resizable=0;points=[];" parent="YvaXyPzC3fc4QxB65vGy-11" vertex="1" connectable="0">
                    <mxGeometry x="-0.22" y="1" relative="1" as="geometry">
                        <mxPoint as="offset"/>
                    </mxGeometry>
                </mxCell>
                <mxCell id="YvaXyPzC3fc4QxB65vGy-12" style="edgeStyle=orthogonalEdgeStyle;rounded=0;orthogonalLoop=1;jettySize=auto;html=1;entryX=0.5;entryY=1;entryDx=0;entryDy=0;" parent="1" source="YvaXyPzC3fc4QxB65vGy-8" target="YvaXyPzC3fc4QxB65vGy-5" edge="1">
                    <mxGeometry relative="1" as="geometry"/>
                </mxCell>
                <mxCell id="YvaXyPzC3fc4QxB65vGy-26" value="Relies" style="edgeLabel;html=1;align=center;verticalAlign=middle;resizable=0;points=[];" parent="YvaXyPzC3fc4QxB65vGy-12" vertex="1" connectable="0">
                    <mxGeometry x="-0.3965" y="1" relative="1" as="geometry">
                        <mxPoint as="offset"/>
                    </mxGeometry>
                </mxCell>
                <mxCell id="YvaXyPzC3fc4QxB65vGy-24" value="" style="edgeStyle=orthogonalEdgeStyle;rounded=0;orthogonalLoop=1;jettySize=auto;html=1;" parent="1" source="YvaXyPzC3fc4QxB65vGy-8" target="YvaXyPzC3fc4QxB65vGy-3" edge="1">
                    <mxGeometry relative="1" as="geometry"/>
                </mxCell>
                <mxCell id="YvaXyPzC3fc4QxB65vGy-25" value="Implements" style="edgeLabel;html=1;align=center;verticalAlign=middle;resizable=0;points=[];" parent="YvaXyPzC3fc4QxB65vGy-24" vertex="1" connectable="0">
                    <mxGeometry x="0.1355" relative="1" as="geometry">
                        <mxPoint y="-6" as="offset"/>
                    </mxGeometry>
                </mxCell>
                <mxCell id="YvaXyPzC3fc4QxB65vGy-8" value="LogStrategy" style="rounded=0;whiteSpace=wrap;html=1;strokeColor=#000000;" parent="1" vertex="1">
                    <mxGeometry x="-57" y="700" width="120" height="60" as="geometry"/>
                </mxCell>
                <mxCell id="YvaXyPzC3fc4QxB65vGy-13" value="ErrorAnalytics" style="rounded=1;whiteSpace=wrap;html=1;dashed=1;" parent="1" vertex="1">
                    <mxGeometry x="-152" y="430" width="120" height="60" as="geometry"/>
                </mxCell>
                <mxCell id="YvaXyPzC3fc4QxB65vGy-14" value="Analytics" style="rounded=1;whiteSpace=wrap;html=1;dashed=1;" parent="1" vertex="1">
                    <mxGeometry x="48" y="430" width="120" height="60" as="geometry"/>
                </mxCell>
                <mxCell id="YvaXyPzC3fc4QxB65vGy-20" style="edgeStyle=orthogonalEdgeStyle;rounded=0;orthogonalLoop=1;jettySize=auto;html=1;entryX=0.5;entryY=1;entryDx=0;entryDy=0;" parent="1" source="YvaXyPzC3fc4QxB65vGy-18" target="YvaXyPzC3fc4QxB65vGy-19" edge="1">
                    <mxGeometry relative="1" as="geometry">
                        <mxPoint x="-331" y="280" as="targetPoint"/>
                    </mxGeometry>
                </mxCell>
                <mxCell id="YvaXyPzC3fc4QxB65vGy-37" value="Relies" style="edgeLabel;html=1;align=center;verticalAlign=middle;resizable=0;points=[];" parent="YvaXyPzC3fc4QxB65vGy-20" vertex="1" connectable="0">
                    <mxGeometry x="0.0333" y="2" relative="1" as="geometry">
                        <mxPoint as="offset"/>
                    </mxGeometry>
                </mxCell>
                <mxCell id="YvaXyPzC3fc4QxB65vGy-22" style="edgeStyle=orthogonalEdgeStyle;rounded=0;orthogonalLoop=1;jettySize=auto;html=1;entryX=0.5;entryY=0;entryDx=0;entryDy=0;" parent="1" source="YvaXyPzC3fc4QxB65vGy-18" target="YvaXyPzC3fc4QxB65vGy-13" edge="1">
                    <mxGeometry relative="1" as="geometry"/>
                </mxCell>
                <mxCell id="YvaXyPzC3fc4QxB65vGy-36" value="Implements" style="edgeLabel;html=1;align=center;verticalAlign=middle;resizable=0;points=[];" parent="YvaXyPzC3fc4QxB65vGy-22" vertex="1" connectable="0">
                    <mxGeometry x="-0.0812" y="-1" relative="1" as="geometry">
                        <mxPoint y="-1" as="offset"/>
                    </mxGeometry>
                </mxCell>
                <mxCell id="YvaXyPzC3fc4QxB65vGy-18" value="LogglyAdapter" style="rounded=0;whiteSpace=wrap;html=1;" parent="1" vertex="1">
                    <mxGeometry x="-391" y="330" width="120" height="60" as="geometry"/>
                </mxCell>
                <mxCell id="YvaXyPzC3fc4QxB65vGy-19" value="Loggly" style="rounded=0;whiteSpace=wrap;html=1;fillColor=#f5f5f5;strokeColor=#666666;fontColor=#333333;" parent="1" vertex="1">
                    <mxGeometry x="-391" y="200" width="120" height="60" as="geometry"/>
                </mxCell>
                <mxCell id="YvaXyPzC3fc4QxB65vGy-38" style="edgeStyle=orthogonalEdgeStyle;rounded=0;orthogonalLoop=1;jettySize=auto;html=1;entryX=0.5;entryY=1;entryDx=0;entryDy=0;" parent="1" source="YvaXyPzC3fc4QxB65vGy-40" target="YvaXyPzC3fc4QxB65vGy-41" edge="1">
                    <mxGeometry relative="1" as="geometry">
                        <mxPoint x="-490" y="280" as="targetPoint"/>
                    </mxGeometry>
                </mxCell>
                <mxCell id="YvaXyPzC3fc4QxB65vGy-39" value="Relies" style="edgeLabel;html=1;align=center;verticalAlign=middle;resizable=0;points=[];" parent="YvaXyPzC3fc4QxB65vGy-38" vertex="1" connectable="0">
                    <mxGeometry x="0.0333" y="2" relative="1" as="geometry">
                        <mxPoint as="offset"/>
                    </mxGeometry>
                </mxCell>
                <mxCell id="YvaXyPzC3fc4QxB65vGy-43" style="edgeStyle=orthogonalEdgeStyle;rounded=0;orthogonalLoop=1;jettySize=auto;html=1;exitX=0.5;exitY=1;exitDx=0;exitDy=0;entryX=0;entryY=0.5;entryDx=0;entryDy=0;" parent="1" source="YvaXyPzC3fc4QxB65vGy-40" target="YvaXyPzC3fc4QxB65vGy-13" edge="1">
                    <mxGeometry relative="1" as="geometry"/>
                </mxCell>
                <mxCell id="YvaXyPzC3fc4QxB65vGy-44" value="Implements" style="edgeLabel;html=1;align=center;verticalAlign=middle;resizable=0;points=[];" parent="YvaXyPzC3fc4QxB65vGy-43" vertex="1" connectable="0">
                    <mxGeometry x="0.0712" y="-3" relative="1" as="geometry">
                        <mxPoint x="8" y="-3" as="offset"/>
                    </mxGeometry>
                </mxCell>
                <mxCell id="YvaXyPzC3fc4QxB65vGy-40" value="SentryAdapter" style="rounded=0;whiteSpace=wrap;html=1;" parent="1" vertex="1">
                    <mxGeometry x="-550" y="330" width="120" height="60" as="geometry"/>
                </mxCell>
                <mxCell id="YvaXyPzC3fc4QxB65vGy-41" value="Sentry" style="rounded=0;whiteSpace=wrap;html=1;fillColor=#f5f5f5;strokeColor=#666666;fontColor=#333333;" parent="1" vertex="1">
                    <mxGeometry x="-550" y="200" width="120" height="60" as="geometry"/>
                </mxCell>
                <mxCell id="YvaXyPzC3fc4QxB65vGy-45" style="edgeStyle=orthogonalEdgeStyle;rounded=0;orthogonalLoop=1;jettySize=auto;html=1;entryX=0.5;entryY=1;entryDx=0;entryDy=0;" parent="1" source="YvaXyPzC3fc4QxB65vGy-47" target="YvaXyPzC3fc4QxB65vGy-48" edge="1">
                    <mxGeometry relative="1" as="geometry">
                        <mxPoint x="480.5" y="270" as="targetPoint"/>
                    </mxGeometry>
                </mxCell>
                <mxCell id="YvaXyPzC3fc4QxB65vGy-46" value="Relies" style="edgeLabel;html=1;align=center;verticalAlign=middle;resizable=0;points=[];" parent="YvaXyPzC3fc4QxB65vGy-45" vertex="1" connectable="0">
                    <mxGeometry x="0.0333" y="2" relative="1" as="geometry">
                        <mxPoint as="offset"/>
                    </mxGeometry>
                </mxCell>
                <mxCell id="YvaXyPzC3fc4QxB65vGy-54" style="edgeStyle=orthogonalEdgeStyle;rounded=0;orthogonalLoop=1;jettySize=auto;html=1;exitX=0.5;exitY=1;exitDx=0;exitDy=0;entryX=1;entryY=0.5;entryDx=0;entryDy=0;" parent="1" source="YvaXyPzC3fc4QxB65vGy-47" target="YvaXyPzC3fc4QxB65vGy-14" edge="1">
                    <mxGeometry relative="1" as="geometry"/>
                </mxCell>
                <mxCell id="YvaXyPzC3fc4QxB65vGy-56" value="Implements" style="edgeLabel;html=1;align=center;verticalAlign=middle;resizable=0;points=[];" parent="YvaXyPzC3fc4QxB65vGy-54" vertex="1" connectable="0">
                    <mxGeometry x="0.1692" y="-1" relative="1" as="geometry">
                        <mxPoint as="offset"/>
                    </mxGeometry>
                </mxCell>
                <mxCell id="YvaXyPzC3fc4QxB65vGy-47" value="FirebaseAdapter" style="rounded=0;whiteSpace=wrap;html=1;" parent="1" vertex="1">
                    <mxGeometry x="420.5" y="320" width="120" height="60" as="geometry"/>
                </mxCell>
                <mxCell id="YvaXyPzC3fc4QxB65vGy-48" value="Firebase" style="rounded=0;whiteSpace=wrap;html=1;fillColor=#f5f5f5;strokeColor=#666666;fontColor=#333333;" parent="1" vertex="1">
                    <mxGeometry x="420.5" y="190" width="120" height="60" as="geometry"/>
                </mxCell>
                <mxCell id="YvaXyPzC3fc4QxB65vGy-49" style="edgeStyle=orthogonalEdgeStyle;rounded=0;orthogonalLoop=1;jettySize=auto;html=1;entryX=0.5;entryY=1;entryDx=0;entryDy=0;" parent="1" source="YvaXyPzC3fc4QxB65vGy-51" target="YvaXyPzC3fc4QxB65vGy-52" edge="1">
                    <mxGeometry relative="1" as="geometry">
                        <mxPoint x="321.5" y="270" as="targetPoint"/>
                    </mxGeometry>
                </mxCell>
                <mxCell id="YvaXyPzC3fc4QxB65vGy-50" value="Relies" style="edgeLabel;html=1;align=center;verticalAlign=middle;resizable=0;points=[];" parent="YvaXyPzC3fc4QxB65vGy-49" vertex="1" connectable="0">
                    <mxGeometry x="0.0333" y="2" relative="1" as="geometry">
                        <mxPoint as="offset"/>
                    </mxGeometry>
                </mxCell>
                <mxCell id="YvaXyPzC3fc4QxB65vGy-53" style="edgeStyle=orthogonalEdgeStyle;rounded=0;orthogonalLoop=1;jettySize=auto;html=1;entryX=0.5;entryY=0;entryDx=0;entryDy=0;" parent="1" source="YvaXyPzC3fc4QxB65vGy-51" target="YvaXyPzC3fc4QxB65vGy-14" edge="1">
                    <mxGeometry relative="1" as="geometry">
                        <mxPoint x="256.5" y="420" as="targetPoint"/>
                    </mxGeometry>
                </mxCell>
                <mxCell id="YvaXyPzC3fc4QxB65vGy-58" value="Implements" style="edgeLabel;html=1;align=center;verticalAlign=middle;resizable=0;points=[];" parent="YvaXyPzC3fc4QxB65vGy-53" vertex="1" connectable="0">
                    <mxGeometry x="-0.2952" relative="1" as="geometry">
                        <mxPoint x="-16" as="offset"/>
                    </mxGeometry>
                </mxCell>
                <mxCell id="YvaXyPzC3fc4QxB65vGy-51" value="GoogleAnalyticsAdapter" style="rounded=0;whiteSpace=wrap;html=1;" parent="1" vertex="1">
                    <mxGeometry x="250" y="320" width="143" height="60" as="geometry"/>
                </mxCell>
                <mxCell id="YvaXyPzC3fc4QxB65vGy-52" value="GoogleAnalytics" style="rounded=0;whiteSpace=wrap;html=1;fillColor=#f5f5f5;strokeColor=#666666;fontColor=#333333;" parent="1" vertex="1">
                    <mxGeometry x="261.5" y="190" width="120" height="60" as="geometry"/>
                </mxCell>
                <mxCell id="YvaXyPzC3fc4QxB65vGy-62" style="edgeStyle=orthogonalEdgeStyle;rounded=0;orthogonalLoop=1;jettySize=auto;html=1;entryX=0.5;entryY=1;entryDx=0;entryDy=0;" parent="1" source="YvaXyPzC3fc4QxB65vGy-59" target="YvaXyPzC3fc4QxB65vGy-61" edge="1">
                    <mxGeometry relative="1" as="geometry"/>
                </mxCell>
                <mxCell id="YvaXyPzC3fc4QxB65vGy-63" value="Relies" style="edgeLabel;html=1;align=center;verticalAlign=middle;resizable=0;points=[];" parent="YvaXyPzC3fc4QxB65vGy-62" vertex="1" connectable="0">
                    <mxGeometry x="-0.0517" relative="1" as="geometry">
                        <mxPoint as="offset"/>
                    </mxGeometry>
                </mxCell>
                <mxCell id="YvaXyPzC3fc4QxB65vGy-64" style="edgeStyle=orthogonalEdgeStyle;rounded=0;orthogonalLoop=1;jettySize=auto;html=1;exitX=0.25;exitY=1;exitDx=0;exitDy=0;entryX=0.75;entryY=0;entryDx=0;entryDy=0;" parent="1" source="YvaXyPzC3fc4QxB65vGy-59" target="YvaXyPzC3fc4QxB65vGy-13" edge="1">
                    <mxGeometry relative="1" as="geometry"/>
                </mxCell>
                <mxCell id="YvaXyPzC3fc4QxB65vGy-66" value="Implements" style="edgeLabel;html=1;align=center;verticalAlign=middle;resizable=0;points=[];" parent="YvaXyPzC3fc4QxB65vGy-64" vertex="1" connectable="0">
                    <mxGeometry x="-0.5949" relative="1" as="geometry">
                        <mxPoint as="offset"/>
                    </mxGeometry>
                </mxCell>
                <mxCell id="YvaXyPzC3fc4QxB65vGy-65" style="edgeStyle=orthogonalEdgeStyle;rounded=0;orthogonalLoop=1;jettySize=auto;html=1;exitX=0.75;exitY=1;exitDx=0;exitDy=0;entryX=0.25;entryY=0;entryDx=0;entryDy=0;" parent="1" source="YvaXyPzC3fc4QxB65vGy-59" target="YvaXyPzC3fc4QxB65vGy-14" edge="1">
                    <mxGeometry relative="1" as="geometry"/>
                </mxCell>
                <mxCell id="YvaXyPzC3fc4QxB65vGy-67" value="Implements" style="edgeLabel;html=1;align=center;verticalAlign=middle;resizable=0;points=[];" parent="YvaXyPzC3fc4QxB65vGy-65" vertex="1" connectable="0">
                    <mxGeometry x="-0.6238" relative="1" as="geometry">
                        <mxPoint as="offset"/>
                    </mxGeometry>
                </mxCell>
                <mxCell id="YvaXyPzC3fc4QxB65vGy-59" value="MongoAnalyticsRepository" style="rounded=0;whiteSpace=wrap;html=1;strokeColor=#000000;" parent="1" vertex="1">
                    <mxGeometry x="-87" y="260" width="180" height="60" as="geometry"/>
                </mxCell>
                <mxCell id="YvaXyPzC3fc4QxB65vGy-61" value="MongoDB" style="rounded=0;whiteSpace=wrap;html=1;fillColor=#f5f5f5;strokeColor=#666666;fontColor=#333333;" parent="1" vertex="1">
                    <mxGeometry x="-57" y="160" width="120" height="60" as="geometry"/>
                </mxCell>
            </root>
        </mxGraphModel>
    </diagram>
</mxfile>